<svg width="75" height="75" viewBox="0 0 75 75" fill="none" xmlns="http://www.w3.org/2000/svg">
<g clip-path="url(#clip0)">
<path d="M50.598 15.6982L43.4548 5.77788C43.1796 5.39556 42.7372 5.16895 42.2661 5.16895C41.795 5.16895 41.3526 5.39556 41.0774 5.77788L33.9342 15.6982C33.7546 15.9476 33.6581 16.247 33.6581 16.5542V16.7881V64.3243C33.6581 67.3469 36.1171 69.8059 39.1397 69.8059H45.3924C48.4151 69.8059 50.8741 67.3469 50.8741 64.3243V16.7881V16.5542C50.8741 16.247 50.7776 15.9474 50.598 15.6982ZM42.2661 9.14072L46.7179 15.3232H37.8144L42.2661 9.14072ZM36.5878 18.2529H43.5428V56.1947H40.9889V28.2147C40.989 27.4056 40.3332 26.7498 39.5242 26.7498C38.7153 26.7498 38.0593 27.4056 38.0593 28.2146V56.1946H36.5878V18.2529ZM47.9444 64.3242C47.9444 65.7313 46.7996 66.8761 45.3924 66.8761H39.1397C37.7327 66.8761 36.5878 65.7313 36.5878 64.3242V59.1243H47.9444V64.3242ZM47.9444 56.1947H46.4727V18.2529H47.9444V56.1947Z" fill="#EF8B54"/>
<path d="M40.9601 22.046C40.941 21.9537 40.9132 21.8615 40.8766 21.7721C40.84 21.6842 40.7946 21.5992 40.7418 21.5201C40.6891 21.4396 40.6276 21.3649 40.5602 21.2975C40.4928 21.2301 40.4181 21.1686 40.3375 21.1144C40.2584 21.0616 40.1735 21.0177 40.0841 20.9811C39.9962 20.9445 39.9041 20.9152 39.8102 20.8961C39.6212 20.8595 39.4264 20.8595 39.2374 20.8961C39.1451 20.9152 39.0529 20.9445 38.9636 20.9811C38.8756 21.0177 38.7906 21.0616 38.7115 21.1144C38.631 21.1686 38.5563 21.2301 38.4889 21.2975C38.4215 21.3649 38.36 21.4396 38.3058 21.5201C38.2531 21.5992 38.2076 21.6842 38.171 21.7721C38.1344 21.8615 38.1066 21.9537 38.0875 22.046C38.0685 22.1412 38.0597 22.2379 38.0597 22.3331C38.0597 22.7184 38.2164 23.0963 38.489 23.3688C38.7614 23.6412 39.1393 23.798 39.5245 23.798C39.6198 23.798 39.7166 23.7877 39.8102 23.7687C39.9041 23.7496 39.9964 23.7218 40.0841 23.6852C40.1735 23.6486 40.2584 23.6032 40.3375 23.5504C40.4181 23.4977 40.4928 23.4362 40.5602 23.3688C40.6276 23.3014 40.6891 23.2267 40.7418 23.1461C40.7946 23.067 40.84 22.9821 40.8766 22.8927C40.9132 22.8048 40.941 22.7125 40.9601 22.6188C40.9791 22.525 40.9892 22.4283 40.9892 22.3331C40.9892 22.2379 40.9791 22.1412 40.9601 22.046Z" fill="#EF8B54"/>
<path d="M14.2478 32.6034L14.2474 32.3802C14.2475 31.2257 15.1868 30.2865 16.3412 30.2865C16.3619 30.2865 16.3825 30.286 16.4032 30.2852L20.8651 30.0963C23.4706 30.078 25.5848 27.9527 25.5848 25.3428C25.5848 22.7216 23.4523 20.5892 20.8312 20.5892H10.862C9.85635 20.5892 9.03809 19.7709 9.03809 18.7652C9.03809 18.2786 9.22998 17.8217 9.57832 17.4788C9.91245 17.1496 10.3493 16.9694 10.8107 16.9694C10.8277 16.9694 10.845 16.9699 10.862 16.9699L19.5847 16.9696C22.8381 16.9696 25.4848 14.3226 25.4848 11.0692C25.4848 7.81577 22.8379 5.16895 19.5845 5.16895H9.66196C8.85308 5.16895 8.19712 5.82476 8.19712 6.63379C8.19712 7.44282 8.85308 8.09863 9.66196 8.09863H19.5845C21.2225 8.09863 22.5551 9.4312 22.5551 11.0692C22.5551 12.7072 21.2225 14.0397 19.5847 14.0399L10.8724 14.0402C9.61758 14.0229 8.4249 14.5029 7.52314 15.3908C6.61084 16.289 6.1084 17.4873 6.1084 18.7653C6.1084 21.3865 8.24092 23.519 10.862 23.519H20.8311C21.8367 23.519 22.655 24.3372 22.655 25.3429C22.655 26.3487 21.8367 27.1669 20.8311 27.1669C20.8104 27.1669 20.7898 27.1674 20.7691 27.1683L16.3077 27.3571C13.553 27.3751 11.3178 29.6216 11.3178 32.3833L11.3183 32.6043C4.95688 33.3345 0 38.7514 0 45.3052V57.0451C0 64.0952 5.73574 69.831 12.7859 69.831C19.836 69.831 25.5718 64.0952 25.5718 57.0451V45.3052C25.5718 38.7495 20.612 33.3312 14.2478 32.6034ZM2.92969 45.3052C2.92969 40.368 6.57832 36.2671 11.321 35.5576V47.5051H2.92969V45.3052ZM22.6421 57.0451C22.6421 62.4798 18.2206 66.9013 12.7859 66.9013C7.35117 66.9013 2.92969 62.4798 2.92969 57.0451V50.435H22.6421V57.0451ZM22.6421 47.5051H14.2507V35.5576C18.9935 36.2671 22.6421 40.368 22.6421 45.3052V47.5051Z" fill="#EF8B54"/>
<path d="M5.45796 6.34717C5.43891 6.25488 5.41108 6.1626 5.37446 6.07324C5.33784 5.98535 5.29243 5.90039 5.2397 5.82129C5.18711 5.74072 5.12558 5.66602 5.0582 5.59863C4.78574 5.32617 4.40781 5.16943 4.02256 5.16943C3.6373 5.16943 3.25937 5.32617 2.98691 5.59863C2.91953 5.66602 2.85801 5.74072 2.80527 5.82129C2.75122 5.90039 2.70713 5.98535 2.67051 6.07324C2.63242 6.1626 2.60474 6.25488 2.58555 6.34717C2.5665 6.44238 2.55786 6.53906 2.55786 6.63428C2.55786 6.72949 2.56665 6.82617 2.58555 6.91992C2.60459 7.01367 2.63242 7.10596 2.67036 7.19385C2.70698 7.2832 2.75107 7.36816 2.80513 7.44727C2.85786 7.52783 2.91938 7.60254 2.98677 7.66992C3.05415 7.7373 3.12886 7.79883 3.20957 7.85156C3.28867 7.9043 3.37363 7.94971 3.46152 7.98633C3.55088 8.02295 3.64316 8.05078 3.73691 8.06982C3.83066 8.08887 3.92734 8.09912 4.02256 8.09912C4.40781 8.09912 4.78574 7.94238 5.0582 7.66992C5.12558 7.60254 5.18711 7.52783 5.2397 7.44727C5.29243 7.36816 5.33784 7.2832 5.37446 7.19385C5.41108 7.10596 5.43891 7.01367 5.45796 6.91992C5.477 6.82617 5.48725 6.72949 5.48725 6.63428C5.48725 6.53906 5.477 6.44238 5.45796 6.34717Z" fill="#EF8B54"/>
<path d="M74.9892 19.7853C74.8273 16.3287 73.0861 14.6179 71.6868 13.2433C70.1731 11.7559 69.2593 10.8581 70.1221 7.91566C70.5128 6.58353 69.9747 5.88407 69.6191 5.58568C69.1765 5.21449 68.3868 4.90189 67.1359 5.52108C65.515 6.32352 63.0548 8.68265 61.1531 11.2577C59.4072 13.6221 57.3598 17.1626 57.5209 20.6033C57.6415 23.1761 58.7323 25.5352 60.5131 27.1946C59.6331 28.3823 59.1114 29.8508 59.1114 31.4391C59.1114 32.4468 59.3168 33.4073 59.6903 34.2792V62.9056C59.6903 66.3897 62.525 69.2242 66.009 69.2242C69.4929 69.2242 72.3276 66.3897 72.3276 62.9056V35.2252C73.0105 34.1252 73.4006 32.8271 73.4006 31.4391C73.4007 29.8699 72.8909 28.4182 72.0301 27.2383C74.0165 25.3945 75.1244 22.6744 74.9892 19.7853ZM69.3979 62.9054C69.398 64.7742 67.8778 66.2944 66.0091 66.2944C64.1404 66.2944 62.6202 64.7742 62.6202 62.9054V37.599C63.3809 38.0446 64.2362 38.3569 65.1592 38.4994C65.2332 38.5108 65.3079 38.5165 65.3826 38.5165H67.1296C67.2044 38.5165 67.2791 38.5108 67.353 38.4994C67.4495 38.4845 67.5456 38.4672 67.6412 38.4483C67.7023 38.4364 67.7625 38.4226 67.823 38.4093C67.8491 38.4035 67.8753 38.3979 67.9014 38.3917C68.4273 38.269 68.928 38.0904 69.3979 37.8629V62.9054ZM68.2361 35.1575C68.2298 35.1606 68.2238 35.1638 68.2178 35.167C68.1756 35.1894 68.133 35.2108 68.0899 35.2319C68.0696 35.2419 68.049 35.2515 68.0284 35.2612C67.9956 35.2766 67.9626 35.2915 67.9295 35.306C67.8983 35.3197 67.8668 35.3327 67.8353 35.3456C67.8097 35.356 67.7842 35.3665 67.7584 35.3765C67.7193 35.3916 67.6798 35.4056 67.6402 35.4196C67.6197 35.4267 67.5993 35.4342 67.5787 35.4411C67.534 35.4559 67.489 35.4697 67.4439 35.483C67.4268 35.4881 67.4098 35.4935 67.3925 35.4985C67.3433 35.5124 67.2936 35.5249 67.2438 35.5369C67.2298 35.5403 67.216 35.5442 67.2019 35.5474C67.1379 35.5622 67.0736 35.5756 67.0089 35.5873H65.504C65.5026 35.587 65.5011 35.5867 65.4996 35.5864C65.4289 35.5737 65.359 35.5584 65.2894 35.542C65.2616 35.5354 65.2341 35.5283 65.2064 35.5211C65.1649 35.5104 65.1236 35.4991 65.0826 35.4871C65.048 35.477 65.0133 35.467 64.979 35.456C64.9531 35.4478 64.9275 35.4386 64.9017 35.4298C63.2303 34.8579 62.0416 33.2538 62.0416 31.4393C62.0416 30.0808 62.6883 28.8711 63.6892 28.0997C63.7278 28.07 63.7669 28.0411 63.8063 28.0129C63.8737 27.9645 63.9425 27.9181 64.0128 27.8737C64.0436 27.8542 64.0745 27.8349 64.1057 27.8163C64.2028 27.7584 64.3023 27.7042 64.4042 27.6541C64.4142 27.6492 64.4241 27.6439 64.4341 27.639C64.4931 27.6106 64.553 27.5835 64.6135 27.5577C64.6235 27.5535 64.6336 27.5498 64.6436 27.5457C64.7488 27.5019 64.8561 27.4627 64.9654 27.4274C64.9992 27.4165 65.0331 27.4063 65.0672 27.3963C65.1412 27.3745 65.216 27.3549 65.2918 27.337C65.3495 27.3235 65.4075 27.3108 65.4659 27.2998C65.5056 27.2922 65.5453 27.2848 65.5853 27.2784C65.677 27.2639 65.7695 27.2519 65.8628 27.2434C65.888 27.241 65.9134 27.2394 65.9388 27.2375C66.0441 27.2298 66.1499 27.2243 66.2567 27.2243C66.3651 27.2243 66.4721 27.2301 66.5788 27.238C66.604 27.2399 66.6293 27.2413 66.6544 27.2437C66.7478 27.2523 66.8404 27.2646 66.9322 27.2793C66.9737 27.286 67.0149 27.2935 67.056 27.3014C67.1149 27.3125 67.1734 27.3257 67.2315 27.3395C67.308 27.3577 67.3837 27.3777 67.4584 27.4C67.4895 27.4092 67.5205 27.4189 67.5514 27.4288C67.6565 27.4628 67.7597 27.5008 67.861 27.5425C67.8759 27.5487 67.891 27.5545 67.9058 27.5608C68.0833 27.6366 68.2544 27.7244 68.4185 27.8229C68.4548 27.8447 68.4905 27.8676 68.5263 27.8906C68.5925 27.933 68.6574 27.9771 68.721 28.0231C68.7654 28.0554 68.8093 28.0885 68.8527 28.1226C69.837 28.8949 70.4713 30.094 70.4713 31.4393C70.4713 33.0184 69.5713 34.4387 68.2361 35.1575ZM69.8461 25.2622C69.8143 25.2437 69.7811 25.2281 69.7491 25.21C69.6727 25.167 69.595 25.1255 69.5168 25.0852C69.4768 25.0647 69.4371 25.0435 69.3967 25.0237C69.1358 24.8955 68.8658 24.7836 68.5884 24.6875C68.573 24.6823 68.5578 24.6771 68.5424 24.6719C68.4035 24.6248 68.2629 24.5813 68.1204 24.5428C68.1198 24.5427 68.1192 24.5425 68.1185 24.5422C67.8298 24.4641 67.534 24.4042 67.2321 24.3628C67.2046 24.359 67.1769 24.3557 67.1493 24.3522C67.0327 24.3376 66.9154 24.3259 66.7972 24.3171C66.7619 24.3144 66.7267 24.3112 66.6914 24.309C66.5473 24.3004 66.4024 24.2945 66.2562 24.2945C66.1115 24.2945 65.9681 24.3002 65.8254 24.3087C65.7913 24.3108 65.7573 24.314 65.7232 24.3165C65.6061 24.3251 65.4898 24.3366 65.3744 24.3509C65.3473 24.3543 65.3203 24.3575 65.2932 24.3613C64.8462 24.4218 64.4123 24.5239 63.9951 24.6635C63.9832 24.6675 63.9715 24.6714 63.9598 24.6755C63.8277 24.7205 63.697 24.7688 63.5684 24.8213C63.5577 24.8257 63.5468 24.8296 63.5362 24.834C63.402 24.8895 63.2695 24.9483 63.1395 25.0116C63.1112 25.0253 63.0837 25.0406 63.0555 25.0546C62.9666 25.0993 62.8786 25.1454 62.7919 25.1938C62.7665 25.2078 62.7402 25.22 62.715 25.2344C61.3679 24.0881 60.5364 22.3655 60.4475 20.4663C60.3491 18.3663 61.5801 15.4921 63.8249 12.5807C64.95 11.1215 66.034 10.0198 66.892 9.27108C66.6489 12.4004 68.2783 14.0014 69.6337 15.333C70.8791 16.5566 71.9546 17.6132 72.0627 19.9223C72.1616 22.0331 71.3274 24.0021 69.8461 25.2622Z" fill="#EF8B54"/>
</g>
<defs>
<clipPath id="clip0">
<rect width="75" height="75" fill="white"/>
</clipPath>
</defs>
</svg>
