<svg width="83" height="83" viewBox="0 0 83 83" fill="none" xmlns="http://www.w3.org/2000/svg">
<path d="M55.8004 44.8645L48.7353 41.7245C48.2362 41.5027 47.9139 41.0065 47.9139 40.4605V38.5204C50.2872 36.6294 51.8126 33.7174 51.8126 30.4541V27.7231C52.5945 27.2911 53.1121 26.4562 53.1121 25.5212V25.2561C53.1121 19.57 48.486 14.9438 42.7998 14.9438H40.2009C34.5147 14.9438 29.8886 19.57 29.8886 25.2561V27.661C29.8886 28.4829 30.2423 29.2275 30.8588 29.7039C30.9634 29.7846 31.0735 29.8556 31.1881 29.9171V30.454C31.1881 33.7172 32.7134 36.6292 35.0865 38.5201V40.4604C35.0865 41.0063 34.7641 41.5026 34.2651 41.7243L27.2 44.8644C24.8862 45.8926 23.3911 48.1933 23.3911 50.7253V66.8396C23.3911 67.5111 23.9355 68.0554 24.6069 68.0554C25.2784 68.0554 25.8228 67.5111 25.8228 66.8396V50.7254C25.8228 50.5846 25.8328 50.4453 25.8474 50.3072L29.1029 53.5627C29.6095 54.0694 29.8886 54.743 29.8886 55.4597V66.8398C29.8886 67.5112 30.433 68.0556 31.1044 68.0556C31.7759 68.0556 32.3203 67.5112 32.3203 66.8398V55.4597C32.3203 54.0936 31.7884 52.8094 30.8224 51.8433L26.9413 47.9621C27.291 47.5993 27.7105 47.2986 28.1878 47.0864L35.1337 43.9994L40.2847 49.1504V66.8396C40.2847 67.5111 40.8291 68.0554 41.5005 68.0554C42.172 68.0554 42.7163 67.5111 42.7163 66.8396V49.1505L47.8674 43.9995L54.8131 47.0864C55.2904 47.2986 55.7099 47.5993 56.0596 47.9623L52.1785 51.8433C51.2125 52.8094 50.6806 54.0936 50.6806 55.4597V66.8398C50.6806 67.5112 51.225 68.0556 51.8964 68.0556C52.5679 68.0556 53.1123 67.5112 53.1123 66.8398V55.4597C53.1123 54.7432 53.3913 54.0694 53.898 53.5627L57.1533 50.3074C57.1679 50.4455 57.178 50.5844 57.178 50.7253V66.8396C57.178 67.5111 57.7223 68.0554 58.3938 68.0554C59.0653 68.0554 59.6096 67.5111 59.6096 66.8396V50.7254C59.6091 48.1935 58.1142 45.8928 55.8004 44.8645ZM41.5 46.9275L36.9803 42.4076C37.3239 41.8294 37.518 41.1603 37.518 40.4605V39.9657C38.744 40.4809 40.0894 40.7664 41.5002 40.7664C42.911 40.7664 44.2562 40.4811 45.4821 39.9659V40.4605C45.4821 41.1605 45.6761 41.8294 46.02 42.4078L41.5 46.9275ZM41.5002 38.3346C37.1549 38.3348 33.6196 34.7995 33.6196 30.4541V29.9074C34.3782 29.6066 35.1188 29.1281 35.8277 28.474C36.321 28.0186 36.3519 27.2494 35.8964 26.7559C35.441 26.2626 34.672 26.2317 34.1784 26.687C33.5703 27.2484 32.9627 27.6111 32.3729 27.7651C32.3587 27.7688 32.3481 27.7704 32.3407 27.7711C32.3319 27.7541 32.3201 27.7184 32.3201 27.6612V25.2563C32.3201 20.9109 35.8554 17.3757 40.2007 17.3757H42.7997C47.1452 17.3757 50.6803 20.9109 50.6803 25.2563V25.5213C50.6803 25.5607 50.6566 25.5949 50.6255 25.6011C43.345 27.039 39.6933 24.329 38.4613 23.097C37.9865 22.6222 37.2166 22.6222 36.742 23.097C36.2671 23.5718 36.2671 24.3417 36.742 24.8163C40.5175 28.5918 46.0268 28.6599 49.3808 28.2569V30.454C49.3808 34.7993 45.8455 38.3346 41.5002 38.3346Z" fill="#EF8B54"/>
<path d="M21.924 38.2515V35.6521C21.924 32.4802 20.2757 29.6881 17.792 28.0812C17.9453 27.5892 18.0254 27.0739 18.0254 26.5556C18.0254 23.7356 15.7313 21.4414 12.9112 21.4414C10.0911 21.4414 7.79697 23.7357 7.79697 26.5556C7.79697 27.0804 7.87641 27.5907 8.03009 28.0816C5.54657 29.6882 3.89841 32.4804 3.89841 35.6521V38.251C3.89841 41.3225 5.4438 44.0385 7.79681 45.6664V48.3401C7.79681 48.8674 7.50388 49.3414 7.0323 49.5773L2.82703 51.6798C1.08321 52.552 0 54.3047 0 56.2544V66.84C0 67.5114 0.544363 68.0558 1.21582 68.0558C1.88728 68.0558 2.43164 67.5114 2.43164 66.84V56.7803L4.41229 58.7609C4.91888 59.2677 5.19804 59.9412 5.19804 60.6579V66.84C5.19804 67.5114 5.7424 68.0558 6.41386 68.0558C7.08531 68.0558 7.62968 67.5114 7.62968 66.84V60.6579C7.62968 59.2918 7.09763 58.0076 6.13179 57.0416L3.37512 54.2849C3.36182 54.2716 3.34756 54.2601 3.33394 54.2476C3.50691 54.0949 3.70096 53.962 3.91462 53.855L8.1199 51.7525C8.33534 51.6447 8.53587 51.5174 8.72278 51.376L11.6954 54.3488V66.8401C11.6954 67.5116 12.2397 68.056 12.9112 68.056C13.5827 68.056 14.127 67.5116 14.127 66.8401V54.3486L17.0998 51.3759C17.2869 51.5174 17.4872 51.6447 17.7027 51.7523L18.8622 52.3322C19.0368 52.4195 19.2223 52.4609 19.4051 52.4609C19.8511 52.4609 20.2805 52.2145 20.4935 51.7886C20.7939 51.188 20.5504 50.4577 19.9498 50.1575L18.7903 49.5776C18.3185 49.3417 18.0256 48.8677 18.0256 48.3405V45.6669C20.3786 44.039 21.924 41.3228 21.924 38.2515ZM12.9112 23.873C14.3904 23.873 15.5938 25.0765 15.5938 26.5556C15.5938 26.7186 15.5792 26.8782 15.5513 27.0347C14.7158 26.7782 13.8295 26.6393 12.9112 26.6393C11.9941 26.6393 11.109 26.7777 10.2748 27.0335C10.2468 26.8771 10.2286 26.7182 10.2286 26.5556C10.2286 25.0764 11.432 23.873 12.9112 23.873ZM12.9112 29.0711C16.54 29.0711 19.4924 32.0234 19.4924 35.6522V36.0929C14.4305 37.6426 11.4138 33.792 11.2849 33.6233C11.0734 33.3414 10.75 33.165 10.3985 33.14C10.0471 33.1154 9.70176 33.2439 9.4526 33.4931C8.29206 34.6536 7.15535 35.2134 6.33442 35.4836C6.42439 31.9325 9.33896 29.0711 12.9112 29.0711ZM12.9112 52.1255L10.1017 49.316C10.1837 49.0024 10.2286 48.6756 10.2286 48.3402V46.8561C11.0763 47.121 11.9775 47.2638 12.9112 47.2638C13.845 47.2638 14.7461 47.121 15.5938 46.8561V48.3402C15.5938 48.6756 15.6387 49.0026 15.7207 49.316L12.9112 52.1255ZM12.9112 44.8322C9.28238 44.8322 6.33005 41.8798 6.33005 38.251V37.9991C7.29962 37.7764 8.73721 37.2587 10.2369 36.0526C10.7675 36.5532 11.5258 37.1673 12.4915 37.694C13.6337 38.317 15.2112 38.8933 17.138 38.8933C17.8703 38.8933 18.6538 38.8082 19.482 38.6127C19.2934 42.074 16.4186 44.8322 12.9112 44.8322Z" fill="#EF8B54"/>
<path d="M80.173 49.0808L73.3687 45.6786C72.8972 45.4428 72.6042 44.9688 72.6042 44.4416V42.7185C74.197 41.3044 75.2032 39.2437 75.2032 36.9515V35.5676C75.2312 35.5676 75.2588 35.5684 75.2868 35.5684C75.9583 35.5684 76.5026 35.024 76.5026 34.3525V31.7536C76.5026 27.5005 73.0424 24.0403 68.7893 24.0403H66.1904C61.9373 24.0403 58.4771 27.5005 58.4771 31.7536V34.3525C58.4771 35.024 59.0214 35.5684 59.6929 35.5684C59.7029 35.5684 59.7321 35.568 59.7765 35.5663V36.9515C59.7765 39.2439 60.7829 41.3046 62.3756 42.7187V44.4417C62.3756 44.9691 62.0827 45.4431 61.6109 45.6788C61.0103 45.979 60.7668 46.7093 61.0672 47.3099C61.2802 47.736 61.7097 47.9824 62.1556 47.9824C62.3383 47.9824 62.5238 47.941 62.6984 47.8538C62.9138 47.746 63.1143 47.6188 63.3013 47.4774L66.274 50.4502V66.8399C66.274 67.5114 66.8184 68.0557 67.4898 68.0557C68.1613 68.0557 68.7057 67.5114 68.7057 66.8399V50.4498L71.6783 47.4771C71.8653 47.6186 72.0657 47.7459 72.2811 47.8535L78.8652 51.1456L76.8682 53.1426C75.9023 54.1087 75.3703 55.3929 75.3703 56.759V66.8396C75.3703 67.511 75.9147 68.0554 76.5861 68.0554C77.2576 68.0554 77.8019 67.511 77.8019 66.8396V56.759C77.8019 56.0425 78.0809 55.3687 78.5877 54.862L80.4793 52.9703C80.5367 53.1903 80.5682 53.4197 80.5682 53.6551V66.8396C80.5682 67.511 81.1125 68.0554 81.784 68.0554C82.4555 68.0554 82.9998 67.511 82.9998 66.8396V53.6551C83 51.7055 81.9168 49.9528 80.173 49.0808ZM60.9085 32.8866V31.7534H60.9087C60.9087 28.8412 63.2781 26.4718 66.1904 26.4718H68.7893C71.7016 26.4718 74.071 28.8412 74.071 31.7534V33.104C68.7857 32.8188 65.5962 30.7621 65.5653 30.7419C65.3596 30.6047 65.1248 30.5376 64.8912 30.5376C64.5774 30.5376 64.2661 30.6589 64.0311 30.8938C62.8678 32.0571 61.728 32.617 60.9085 32.8866ZM67.4898 48.2268L64.6803 45.4173C64.7624 45.1038 64.8073 44.777 64.8073 44.4416V44.1827C65.6431 44.4938 66.5469 44.6646 67.4898 44.6646C68.4328 44.6646 69.3366 44.4938 70.1724 44.1827V44.4416C70.1724 44.777 70.2172 45.1038 70.2994 45.4173L67.4898 48.2268ZM67.4898 42.2332C64.5775 42.2332 62.2082 39.8639 62.2082 36.9515V34.9914C63.0597 34.6512 64.0518 34.1102 65.0614 33.25C66.3382 33.9144 69.0095 35.0626 72.7715 35.4419V36.9515C72.7715 39.8638 70.4021 42.2332 67.4898 42.2332Z" fill="#EF8B54"/>
</svg>
