<svg width="75" height="75" viewBox="0 0 75 75" fill="none" xmlns="http://www.w3.org/2000/svg">
<path d="M68.75 0H6.25C2.80375 0 0 2.80375 0 6.25V45V50C0 53.4463 2.80375 56.25 6.25 56.25H27.2525L25.2075 67.5H20.2962C18.8662 67.5 17.5813 68.2938 16.9412 69.5725C16.3563 70.7438 16.4175 72.1075 17.105 73.2213C17.7925 74.335 18.9862 75 20.295 75H54.7038C56.0125 75 57.205 74.335 57.8937 73.2213C58.5825 72.1075 58.6437 70.7438 58.0575 69.5725C57.42 68.2938 56.135 67.5 54.705 67.5H49.7937L47.7488 56.25H68.75C72.1963 56.25 75 53.4463 75 50V45V6.25C75 2.80375 72.1963 0 68.75 0ZM48.75 70H54.705C55.1813 70 55.61 70.265 55.8237 70.6913C56.105 71.2538 55.8787 71.7288 55.77 71.9075C55.6575 72.085 55.3338 72.5 54.705 72.5H20.295C19.6663 72.5 19.3412 72.085 19.2313 71.9062C19.1213 71.7275 18.895 71.2537 19.1775 70.69C19.39 70.265 19.8188 70 20.295 70H26.25H36.25C36.94 70 37.5 69.44 37.5 68.75C37.5 68.06 36.94 67.5 36.25 67.5H27.7475L29.7925 56.25H45.2063L47.2525 67.5H43.75C43.06 67.5 42.5 68.06 42.5 68.75C42.5 69.44 43.06 70 43.75 70H48.75ZM72.5 50C72.5 52.0675 70.8175 53.75 68.75 53.75H46.25H28.75H6.25C4.1825 53.75 2.5 52.0675 2.5 50V46.25H72.5V50ZM72.5 43.75H2.5V6.25C2.5 4.1825 4.1825 2.5 6.25 2.5H68.75C70.8175 2.5 72.5 4.1825 72.5 6.25V43.75Z" fill="#EF8B54"/>
<path d="M33.7501 25H21.2501V12.5C21.2501 11.81 20.6901 11.25 20.0001 11.25C11.7289 11.25 5.00012 17.9787 5.00012 26.25C5.00012 34.5212 11.7289 41.25 20.0001 41.25C28.2714 41.25 35.0001 34.5212 35.0001 26.25C35.0001 25.56 34.4401 25 33.7501 25ZM20.0001 38.75C13.1076 38.75 7.50012 33.1425 7.50012 26.25C7.50012 19.78 12.4426 14.4413 18.7501 13.8125V26.25C18.7501 26.94 19.3101 27.5 20.0001 27.5H32.4376C31.8089 33.8075 26.4701 38.75 20.0001 38.75Z" fill="#EF8B54"/>
<path d="M25.0001 6.24976C24.3101 6.24976 23.7501 6.80976 23.7501 7.49976V21.2497C23.7501 21.9397 24.3101 22.4997 25.0001 22.4997H38.7501C39.4401 22.4997 40.0001 21.9397 40.0001 21.2497C40.0001 12.9785 33.2714 6.24976 25.0001 6.24976ZM26.2501 19.9997V8.81225C32.1464 9.39975 36.8501 14.1035 37.4376 19.9997H26.2501Z" fill="#EF8B54"/>
<path d="M68.7501 5H43.7501C43.0601 5 42.5001 5.56 42.5001 6.25V40C42.5001 40.69 43.0601 41.25 43.7501 41.25H68.7501C69.4401 41.25 70.0001 40.69 70.0001 40V6.25C70.0001 5.56 69.4401 5 68.7501 5ZM67.5001 38.75H45.0001V7.5H67.5001V38.75Z" fill="#EF8B54"/>
<path d="M56.25 11.25H48.75C48.06 11.25 47.5 11.81 47.5 12.5C47.5 13.19 48.06 13.75 48.75 13.75H56.25C56.94 13.75 57.5 13.19 57.5 12.5C57.5 11.81 56.94 11.25 56.25 11.25Z" fill="#EF8B54"/>
<path d="M63.75 16.25H48.75C48.06 16.25 47.5 16.81 47.5 17.5C47.5 18.19 48.06 18.75 48.75 18.75H63.75C64.44 18.75 65 18.19 65 17.5C65 16.81 64.44 16.25 63.75 16.25Z" fill="#EF8B54"/>
<path d="M56.25 21.25H48.75C48.06 21.25 47.5 21.81 47.5 22.5C47.5 23.19 48.06 23.75 48.75 23.75H56.25C56.94 23.75 57.5 23.19 57.5 22.5C57.5 21.81 56.94 21.25 56.25 21.25Z" fill="#EF8B54"/>
<path d="M63.75 26.25H48.75C48.06 26.25 47.5 26.81 47.5 27.5C47.5 28.19 48.06 28.75 48.75 28.75H63.75C64.44 28.75 65 28.19 65 27.5C65 26.81 64.44 26.25 63.75 26.25Z" fill="#EF8B54"/>
<path d="M56.25 31.2502H48.75C48.06 31.2502 47.5 31.8102 47.5 32.5002C47.5 33.1902 48.06 33.7502 48.75 33.7502H56.25C56.94 33.7502 57.5 33.1902 57.5 32.5002C57.5 31.8102 56.94 31.2502 56.25 31.2502Z" fill="#EF8B54"/>
<path d="M40.0001 48.75H35.0001C34.3101 48.75 33.7501 49.31 33.7501 50C33.7501 50.69 34.3101 51.25 35.0001 51.25H40.0001C40.6901 51.25 41.2501 50.69 41.2501 50C41.2501 49.31 40.6901 48.75 40.0001 48.75Z" fill="#EF8B54"/>
</svg>
