<svg width="75" height="75" viewBox="0 0 75 75" fill="none" xmlns="http://www.w3.org/2000/svg">
<g clip-path="url(#clip0)">
<path d="M61.5896 52.6209L63.7585 50.4519L62.048 48.7414L59.8791 50.9104L57.5964 48.6277C59.4303 45.3265 60.4839 41.5354 60.4839 37.4999C60.4839 37.1552 60.4476 36.8201 60.4319 36.4789C66.1162 35.1423 70.1613 30.11 70.1613 24.1935H67.742C67.742 28.8652 64.6234 32.8608 60.196 34.0511C58.523 23.0116 48.998 14.516 37.5 14.516C37.1553 14.516 36.8202 14.5523 36.4791 14.5681C35.1424 8.88378 30.1101 4.83862 24.1936 4.83862V7.25798C28.8654 7.25798 32.8609 10.3765 34.0512 14.8039C23.0117 16.4769 14.5162 26.0019 14.5162 37.4999C14.5162 37.8447 14.5525 38.1797 14.5682 38.5209C8.88391 39.8576 4.83875 44.8898 4.83875 50.8064H7.2581C7.2581 46.1346 10.3766 42.139 14.8041 40.9487C16.4771 51.9882 26.0021 60.4838 37.5 60.4838C41.5355 60.4838 45.3266 59.4301 48.6266 57.5963L50.9093 59.8789L48.7404 62.0479L50.4508 63.7584L52.6198 61.5894L64.1734 73.1431C65.371 74.3406 66.9641 74.9999 68.6577 74.9999C72.1549 74.9999 75 72.1547 75 68.6588C75 66.9652 74.3408 65.3721 73.1432 64.1745L61.5896 52.6209ZM37.5 16.9354C47.8186 16.9354 56.3601 24.5806 57.8202 34.4999L55.4359 34.8967C54.1682 26.1229 46.6198 19.3548 37.5 19.3548C37.4383 19.3548 37.3779 19.3632 37.3162 19.3644L36.917 16.9656C37.1129 16.9596 37.3029 16.9354 37.5 16.9354ZM37.5 21.7741C46.171 21.7741 53.2258 28.8289 53.2258 37.4999C53.2258 46.1709 46.171 53.2257 37.5 53.2257C28.8291 53.2257 21.7742 46.1709 21.7742 37.4999C21.7742 28.8289 28.8291 21.7741 37.5 21.7741ZM16.9355 37.4999C16.9355 27.1814 24.5807 18.6398 34.5 17.1798L34.8968 19.564C26.123 20.8318 19.3549 28.3802 19.3549 37.4999C19.3549 37.5616 19.3633 37.6221 19.3645 37.6838L16.9658 38.083C16.9597 37.887 16.9355 37.6971 16.9355 37.4999ZM37.5 58.0644C27.1815 58.0644 18.64 50.4193 17.1799 40.4999L19.5641 40.1031C20.8319 48.8769 28.3803 55.6451 37.5 55.6451C47.5053 55.6451 55.6452 47.5052 55.6452 37.4999C55.6452 37.4382 55.6367 37.3777 55.6355 37.316L58.0343 36.9168C58.0404 37.1128 58.0645 37.3027 58.0645 37.4999C58.0645 48.8394 48.8396 58.0644 37.5 58.0644ZM50.7218 56.2693C52.8726 54.7499 54.75 52.8725 56.2694 50.7217L58.1686 52.6209L52.621 58.1685L50.7218 56.2693ZM68.6589 72.5806C67.6113 72.5806 66.6254 72.1729 65.8851 71.4326L54.3315 59.8789L59.8791 54.3314L71.4327 65.885C72.173 66.6253 72.5807 67.6112 72.5807 68.6588C72.5807 70.8217 70.8218 72.5806 68.6589 72.5806Z" fill="white"/>
<path d="M64.1128 21.7742C70.1164 21.7742 74.9999 16.8907 74.9999 10.8871C74.9999 4.88347 70.1164 0 64.1128 0C58.1092 0 53.2257 4.88347 53.2257 10.8871C53.2257 16.8907 58.1092 21.7742 64.1128 21.7742ZM67.7418 18.5262C66.6398 19.0512 65.412 19.3548 64.1128 19.3548C62.8136 19.3548 61.5858 19.0512 60.4838 18.5262V16.9355C60.4838 14.9347 62.112 13.3065 64.1128 13.3065C66.1136 13.3065 67.7418 14.9347 67.7418 16.9355V18.5262ZM61.6935 8.46774C61.6935 7.13347 62.7785 6.04839 64.1128 6.04839C65.4471 6.04839 66.5322 7.13347 66.5322 8.46774C66.5322 9.80202 65.4471 10.8871 64.1128 10.8871C62.7785 10.8871 61.6935 9.80202 61.6935 8.46774ZM64.1128 2.41935C68.781 2.41935 72.5806 6.21895 72.5806 10.8871C72.5806 13.194 71.6503 15.2855 70.1491 16.8145C70.108 14.781 69.0689 12.9871 67.4926 11.9214C68.3902 11.0431 68.9515 9.82137 68.9515 8.46774C68.9515 5.79919 66.7814 3.62903 64.1128 3.62903C61.4443 3.62903 59.2741 5.79919 59.2741 8.46774C59.2741 9.82137 59.8354 11.0431 60.733 11.9214C59.1556 12.9883 58.1164 14.781 58.0765 16.8145C56.5753 15.2855 55.6451 13.194 55.6451 10.8871C55.6451 6.21895 59.4447 2.41935 64.1128 2.41935Z" fill="white"/>
<path d="M10.8871 21.7742C16.8907 21.7742 21.7742 16.8907 21.7742 10.8871C21.7742 4.88347 16.8907 0 10.8871 0C4.88347 0 0 4.88347 0 10.8871C0 16.8907 4.88347 21.7742 10.8871 21.7742ZM14.5161 18.5262C13.4141 19.0512 12.1863 19.3548 10.8871 19.3548C9.5879 19.3548 8.36008 19.0512 7.25806 18.5262V16.9355C7.25806 14.9347 8.88629 13.3065 10.8871 13.3065C12.8879 13.3065 14.5161 14.9347 14.5161 16.9355V18.5262ZM8.46774 8.46774C8.46774 7.13347 9.55282 6.04839 10.8871 6.04839C12.2214 6.04839 13.3065 7.13347 13.3065 8.46774C13.3065 9.80202 12.2214 10.8871 10.8871 10.8871C9.55282 10.8871 8.46774 9.80202 8.46774 8.46774ZM10.8871 2.41935C15.5552 2.41935 19.3548 6.21895 19.3548 10.8871C19.3548 13.194 18.4246 15.2855 16.9234 16.8145C16.8823 14.781 15.8431 12.9871 14.2669 11.9214C15.1645 11.0431 15.7258 9.82137 15.7258 8.46774C15.7258 5.79919 13.5556 3.62903 10.8871 3.62903C8.21855 3.62903 6.04839 5.79919 6.04839 8.46774C6.04839 9.82137 6.60968 11.0431 7.50726 11.9214C5.93105 12.9883 4.89194 14.781 4.85081 16.8145C3.3496 15.2855 2.41935 13.194 2.41935 10.8871C2.41935 6.21895 6.21895 2.41935 10.8871 2.41935Z" fill="white"/>
<path d="M10.8871 53.2258C4.88347 53.2258 0 58.1093 0 64.1129C0 70.1166 4.88347 75 10.8871 75C16.8907 75 21.7742 70.1166 21.7742 64.1129C21.7742 58.1093 16.8907 53.2258 10.8871 53.2258ZM14.5161 71.7521C13.4141 72.2771 12.1863 72.5807 10.8871 72.5807C9.5879 72.5807 8.36008 72.2771 7.25806 71.7521V70.1613C7.25806 68.1605 8.88629 66.5323 10.8871 66.5323C12.8879 66.5323 14.5161 68.1605 14.5161 70.1613V71.7521ZM8.46774 61.6936C8.46774 60.3593 9.55282 59.2742 10.8871 59.2742C12.2214 59.2742 13.3065 60.3593 13.3065 61.6936C13.3065 63.0279 12.2214 64.1129 10.8871 64.1129C9.55282 64.1129 8.46774 63.0279 8.46774 61.6936ZM16.9234 70.0404C16.8823 68.0069 15.8431 66.2129 14.2669 65.1472C15.1645 64.269 15.7258 63.0472 15.7258 61.6936C15.7258 59.025 13.5556 56.8549 10.8871 56.8549C8.21855 56.8549 6.04839 59.025 6.04839 61.6936C6.04839 63.0472 6.60968 64.269 7.50726 65.1472C5.93105 66.2141 4.89194 68.0069 4.85081 70.0404C3.3496 68.5113 2.41935 66.4198 2.41935 64.1129C2.41935 59.4448 6.21895 55.6452 10.8871 55.6452C15.5552 55.6452 19.3548 59.4448 19.3548 64.1129C19.3548 66.4198 18.4246 68.5113 16.9234 70.0404Z" fill="white"/>
<path d="M24.1937 35.0805V41.1289V42.3386V43.5482H50.8066V42.3386V41.1289V30.2418H43.5486V41.1289H41.1292V25.4031H33.8711V41.1289H31.4518V35.0805H24.1937ZM45.9679 32.6611H48.3873V41.1289H45.9679V32.6611ZM36.2905 27.8224H38.7098V41.1289H36.2905V27.8224ZM29.0324 41.1289H26.6131V37.4998H29.0324V41.1289Z" fill="white"/>
</g>
<defs>
<clipPath id="clip0">
<rect width="75" height="75" fill="white"/>
</clipPath>
</defs>
</svg>
