<svg width="75" height="75" viewBox="0 0 75 75" fill="none" xmlns="http://www.w3.org/2000/svg">
<path d="M60.6251 12.4998C59.5894 12.4998 58.75 13.3392 58.75 14.3749C58.75 15.4106 59.5894 16.25 60.6251 16.25C61.6608 16.25 62.5002 15.4106 62.5002 14.3749C62.5002 13.3392 61.6608 12.4998 60.6251 12.4998Z" fill="#EF8B54"/>
<path d="M65.8842 0.366312C65.3961 -0.121778 64.6047 -0.121778 64.1166 0.366312L54.1162 10.3662C53.8822 10.6008 53.75 10.9183 53.75 11.2502V19.9998C53.75 20.6904 54.3096 21.2501 55.0003 21.2501H63.7504C64.0817 21.2501 64.3993 21.1185 64.6339 20.8839L74.6337 10.8834C75.1218 10.3953 75.1218 9.60456 74.6337 9.11589L65.8842 0.366312ZM63.2326 18.7501H56.25V11.7675L65.0001 3.01734L71.9827 9.99995L63.2326 18.7501Z" fill="#EF8B54"/>
<path d="M1.25027 42.5H4.99992V42.6602C5.00507 44.9089 6.55861 46.8584 8.75015 47.3648V58.75C8.75015 59.4407 9.30977 60.0003 9.99985 60.0003H17.4997C18.1904 60.0003 18.75 59.4407 18.75 58.75V53.7501H20.01C22.0734 53.7444 23.7448 52.0735 23.7499 50.0101V47.3648C25.3464 46.9906 26.6447 45.8325 27.1975 44.2887L48.2426 53.6425C48.8737 53.9229 49.6124 53.6385 49.8922 53.0074C49.9632 52.8477 50.0004 52.6749 49.9998 52.4998V22.4997C50.0004 21.8096 49.4408 21.25 48.7501 21.25C48.5756 21.25 48.4022 21.2866 48.2426 21.3576L27.1975 30.7114C26.5142 28.7905 24.6986 27.5059 22.6599 27.5002H9.8402C7.16801 27.5025 5.00278 29.6683 4.99992 32.3399V32.5001H1.25027C0.559616 32.5001 0 33.0597 0 33.7498V41.2497C0 41.9403 0.559616 42.5 1.25027 42.5ZM42.4999 26.6447L47.4998 24.424V50.5761L42.4999 48.3553V26.6447ZM27.5002 33.3126L40 27.756V47.2498L27.5002 41.6874V33.3126ZM16.25 52.4998V57.5003H11.2501V47.4999H16.25V52.4998ZM21.25 50.0101C21.2494 50.6945 20.6949 51.2495 20.01 51.2501H18.75V47.4999H21.25V50.0101ZM7.49989 41.2497V32.3399C7.5016 31.0484 8.54816 30.0013 9.8402 30.0002H22.6599C23.9519 30.0013 24.9985 31.0484 25.0002 32.3399V42.6602C24.9985 43.9516 23.9519 44.9988 22.6599 44.9999H9.8402C8.54816 44.9988 7.5016 43.9516 7.49989 42.6602V41.2497ZM2.49996 35.0001H4.99992V40H2.49996V35.0001Z" fill="#EF8B54"/>
<path d="M62.2605 49.1524C61.7724 48.6644 60.981 48.6644 60.4929 49.1524L51.6529 57.9924C51.1648 58.4805 51.1648 59.2719 51.6529 59.76L64.028 72.135C64.5161 72.6231 65.3069 72.6231 65.7955 72.135L74.6338 63.2962C75.1219 62.8081 75.1219 62.0167 74.6338 61.5287L62.2605 49.1524ZM70.4779 60.9027L63.4238 60.3614L62.8813 53.3072L70.4779 60.9027ZM64.9115 69.48L54.304 58.8748L60.3379 52.8414L61.0142 61.6214C61.0611 62.2359 61.5492 62.7251 62.1638 62.7726L70.9454 63.4473L64.9115 69.48Z" fill="#EF8B54"/>
<path d="M33.7501 23.7499C38.5726 23.7608 42.4911 19.8601 42.5025 15.0375C42.5065 13.1378 41.8914 11.2885 40.7499 9.76982L48.386 2.13375L46.6161 0.366211L38.9801 7.99999C35.1137 5.10063 29.6291 5.88398 26.7297 9.74979C23.8304 13.6156 24.6137 19.1002 28.4795 22.0001C29.9999 23.14 31.8498 23.7539 33.7501 23.7499ZM33.7501 8.74958C37.2016 8.74958 39.9997 11.5482 39.9997 14.9998C39.9997 18.4519 37.2016 21.25 33.7501 21.25C30.298 21.25 27.4999 18.4519 27.4999 14.9998C27.5039 11.5499 30.2997 8.75416 33.7501 8.74958Z" fill="#EF8B54"/>
<path d="M53.7501 43.7501H60.0003V44.9998C60.0003 45.6904 60.5599 46.2501 61.2505 46.2501H71.2504C71.9404 46.2501 72.5001 45.6904 72.5001 44.9998V38.7736C72.4938 36.6507 71.1514 34.7619 69.1492 34.0575C71.3991 32.4565 71.925 29.3345 70.324 27.0846C68.7235 24.8347 65.6016 24.3083 63.3517 25.9093C61.1017 27.5104 60.5753 30.6323 62.1763 32.8822C62.4996 33.3365 62.8968 33.7342 63.3517 34.0575C62.5426 34.3459 61.821 34.8374 61.2562 35.4846C60.8208 34.9828 60.2892 34.5725 59.693 34.2784C61.373 33.0676 61.7535 30.7239 60.5427 29.0439C59.3319 27.3639 56.9882 26.9834 55.3076 28.1941C53.6276 29.4049 53.2471 31.7487 54.4579 33.4287C54.6936 33.756 54.9809 34.0426 55.3076 34.2784C53.5956 35.1109 52.5061 36.8459 52.5004 38.7496V42.4998C52.5004 43.1899 53.06 43.7501 53.7501 43.7501ZM66.2504 27.5001C67.6312 27.5001 68.7504 28.6193 68.7504 30C68.7504 31.3807 67.6312 32.5 66.2504 32.5C64.8697 32.5 63.7505 31.3802 63.7505 30C63.7505 28.6193 64.8697 27.5001 66.2504 27.5001ZM62.5002 42.4998V38.7736C62.5025 37.3803 63.6309 36.2519 65.0242 36.2496H67.4767C68.8694 36.2519 69.9984 37.3803 70.0001 38.7736V43.7495H62.5002V42.4998ZM57.5003 30C58.1904 30 58.75 30.5596 58.75 31.2497C58.75 31.9404 58.1904 32.5 57.5003 32.5C56.8096 32.5 56.25 31.9404 56.25 31.2497C56.25 30.5596 56.8096 30 57.5003 30ZM55.0003 38.7496C55.0003 37.3689 56.1196 36.2496 57.5003 36.2496C58.881 36.2496 60.0003 37.3694 60.0003 38.7496V41.2501H55.0003V38.7496Z" fill="#EF8B54"/>
<path d="M35.0001 51.25H30.0001C29.6688 51.25 29.3507 51.3816 29.1161 51.6162L21.6162 59.1161C21.1281 59.6042 21.1281 60.3955 21.6162 60.8836L35.3663 74.6337C35.8544 75.1218 36.6457 75.1218 37.1338 74.6337L47.1342 64.6339C47.6217 64.1458 47.6217 63.3544 47.1342 62.8663L35.8841 51.6162C35.6495 51.3816 35.3314 51.25 35.0001 51.25ZM36.2503 71.9827L24.2678 60.0002L30.5174 53.75H34.4828L44.4826 63.7498L36.2503 71.9827Z" fill="#EF8B54"/>
<path d="M29.1166 61.6161L34.1165 56.6162L35.884 58.3838L30.8841 63.3837L29.1166 61.6161Z" fill="#EF8B54"/>
<path d="M32.8657 65.3659L37.8662 60.366L39.6338 62.1335L34.6338 67.134L32.8657 65.3659Z" fill="#EF8B54"/>
</svg>
