<svg width="75" height="75" viewBox="0 0 75 75" fill="none" xmlns="http://www.w3.org/2000/svg">
<g clip-path="url(#clip0)">
<path d="M50.0001 6.25H25.0001V8.75H50.0001V6.25Z" fill="#EF8B54"/>
<path d="M61.8752 46.875C61.8752 44.4628 59.9123 42.5 57.5002 42.5H55.0002V25H52.5002V42.5H49.3752C46.9631 42.5 45.0002 44.463 45.0002 46.875C45.0002 48.0997 45.5093 49.205 46.3231 50C45.5093 50.795 45.0002 51.9003 45.0002 53.125C45.0002 53.9676 45.251 54.7484 45.6657 55.4169C44.1704 56.1133 43.1252 57.62 43.1252 59.375C43.1252 60.0486 43.291 60.6795 43.5642 61.25H33.7502C33.7502 57.428 31.8349 54.0455 28.9138 52.0117C31.7385 50.935 33.7502 48.1983 33.7502 45C33.7502 44.3097 33.1912 43.75 32.5002 43.75H22.5002V31.25H20.0002V43.75C17.9324 43.75 16.2502 45.4322 16.2502 47.5V75H18.7502V47.5C18.7502 46.8109 19.3106 46.25 20.0002 46.25H31.0915C30.536 48.4039 28.5756 50 26.2502 50H22.5002C21.8093 50 21.2502 50.5597 21.2502 51.25C21.2502 51.9403 21.8093 52.5 22.5002 52.5C27.3245 52.5 31.2502 56.4251 31.2502 61.25V62.5C31.2502 63.1903 31.8093 63.75 32.5002 63.75H39.8142C39.541 64.3204 39.3752 64.9514 39.3752 65.625C39.3752 68.0372 41.3382 70 43.7502 70V75H46.2502V70H51.2502H51.8752C54.2874 70 56.2502 68.037 56.2502 65.625C56.2502 64.9442 56.0804 64.3073 55.8017 63.7322C58.1306 63.6372 60.0002 61.7267 60.0002 59.375C60.0002 58.5323 59.7495 57.7515 59.3348 57.0831C60.8301 56.3867 61.8752 54.88 61.8752 53.125C61.8752 51.9003 61.3662 50.795 60.5524 50C61.3662 49.205 61.8752 48.0997 61.8752 46.875ZM51.8752 67.5H51.2502H45.0002H43.7502C42.7163 67.5 41.8752 66.6589 41.8752 65.625C41.8752 64.5911 42.7163 63.75 43.7502 63.75H47.5002H51.8752C52.9092 63.75 53.7502 64.5911 53.7502 65.625C53.7502 66.6589 52.9092 67.5 51.8752 67.5ZM55.6252 61.25H51.8752H47.5002C46.4663 61.25 45.6252 60.4089 45.6252 59.375C45.6252 58.3411 46.4663 57.5 47.5002 57.5H49.3752H55.6252C56.6592 57.5 57.5002 58.3411 57.5002 59.375C57.5002 60.4089 56.6592 61.25 55.6252 61.25ZM57.5002 55H55.6252H49.3752C48.3413 55 47.5002 54.1589 47.5002 53.125C47.5002 52.0911 48.3413 51.25 49.3752 51.25H57.5002C58.5342 51.25 59.3752 52.0911 59.3752 53.125C59.3752 54.1589 58.5342 55 57.5002 55ZM57.5002 48.75H49.3752C48.3413 48.75 47.5002 47.9089 47.5002 46.875C47.5002 45.8411 48.3413 45 49.3752 45H57.5002C58.5342 45 59.3752 45.8411 59.3752 46.875C59.3752 47.9089 58.5342 48.75 57.5002 48.75Z" fill="#EF8B54"/>
<path d="M18.7463 15.9106C18.7207 15.5517 18.5424 15.2209 18.2555 15.0036L16.9543 14.0172C16.643 12.4414 15.2599 11.25 13.6058 11.25C11.7394 11.25 10.2171 12.7673 10.1927 14.6417C9.19412 14.4672 8.23958 14.0839 7.38505 13.5083L6.94927 13.2141C6.56724 12.9559 6.07162 12.9278 5.66271 13.1463C5.25505 13.363 4.9999 13.7878 4.9999 14.2498V15.2753C4.9999 16.7817 5.45396 18.2184 6.2963 19.4252L5.3613 20.3713C5.00615 20.7295 4.90224 21.2661 5.09646 21.7317C5.29037 22.1967 5.74568 22.5 6.2499 22.5H12.3071C14.7229 22.5 16.7199 20.6586 16.9885 18.2953L18.3886 16.8788C18.6413 16.623 18.7719 16.2702 18.7463 15.9106ZM14.8802 16.8714C14.6483 17.1052 14.5188 17.4214 14.5188 17.7503C14.5188 18.9906 13.5263 20 12.3069 20H9.12708C9.3249 19.5447 9.23943 18.9953 8.86958 18.6213C8.28615 18.0305 7.86865 17.287 7.6574 16.4856C8.85005 16.9886 10.1318 17.2498 11.4429 17.2498C12.1338 17.2498 12.6929 16.6902 12.6929 15.9998V14.6875C12.6929 14.1705 13.103 13.75 13.606 13.75C14.109 13.75 14.5191 14.1705 14.5191 14.6875C14.5191 15.0787 14.7022 15.4473 15.0135 15.6836L15.6093 16.1347L14.8802 16.8714Z" fill="#EF8B54"/>
<path d="M41.2501 21.25V18.75H37.5001C36.8092 18.75 36.2501 19.3097 36.2501 20V23.75H33.7501V26.25H36.2501V31.25H38.7501V26.25H41.2501V23.75H38.7501V21.25H41.2501Z" fill="#EF8B54"/>
<path d="M44.9999 13.75H29.9999C27.9321 13.75 26.2499 15.4322 26.2499 17.5V32.5C26.2499 34.5678 27.9321 36.25 29.9999 36.25H44.9999C47.0677 36.25 48.7499 34.5678 48.7499 32.5V17.5C48.7499 15.4322 47.0677 13.75 44.9999 13.75ZM46.2499 32.5C46.2499 33.1891 45.6896 33.75 44.9999 33.75H29.9999C29.3102 33.75 28.7499 33.1891 28.7499 32.5V17.5C28.7499 16.8109 29.3102 16.25 29.9999 16.25H44.9999C45.6896 16.25 46.2499 16.8109 46.2499 17.5V32.5Z" fill="#EF8B54"/>
<path d="M18.75 6.25H3.75C1.68219 6.25 0 7.93219 0 10V25C0 27.0678 1.68219 28.75 3.75 28.75H18.75C20.8178 28.75 22.5 27.0678 22.5 25V10C22.5 7.93219 20.8178 6.25 18.75 6.25ZM20 25C20 25.6891 19.4397 26.25 18.75 26.25H3.75C3.06031 26.25 2.5 25.6891 2.5 25V10C2.5 9.31094 3.06031 8.75 3.75 8.75H18.75C19.4397 8.75 20 9.31094 20 10V25Z" fill="#EF8B54"/>
<path d="M71.2501 0H56.2501C54.1823 0 52.5001 1.68219 52.5001 3.75V18.75C52.5001 20.8178 54.1823 22.5 56.2501 22.5H71.2501C73.3179 22.5 75.0001 20.8178 75.0001 18.75V3.75C75.0001 1.68219 73.3179 0 71.2501 0ZM72.5001 18.75C72.5001 19.4391 71.9398 20 71.2501 20H56.2501C55.5604 20 55.0001 19.4391 55.0001 18.75V12.5H57.6265C58.2073 15.3491 60.7322 17.5 63.7501 17.5C66.7681 17.5 69.2929 15.3491 69.8737 12.5H72.5001V18.75ZM60.0001 11.25C60.0001 9.18219 61.6823 7.5 63.7501 7.5C65.8179 7.5 67.5001 9.18219 67.5001 11.25C67.5001 13.3178 65.8179 15 63.7501 15C61.6823 15 60.0001 13.3178 60.0001 11.25ZM72.5001 10H69.8737C69.2929 7.15094 66.7681 5 63.7501 5C60.7322 5 58.2073 7.15094 57.6265 10H55.0001V3.75C55.0001 3.06094 55.5604 2.5 56.2501 2.5H71.2501C71.9398 2.5 72.5001 3.06094 72.5001 3.75V10Z" fill="#EF8B54"/>
<path d="M38.7499 51.25H36.2499V53.75H38.7499V51.25Z" fill="#EF8B54"/>
</g>
<defs>
<clipPath id="clip0">
<rect width="75" height="75" fill="white"/>
</clipPath>
</defs>
</svg>
