<svg width="260" height="260" viewBox="0 0 260 260" fill="none" xmlns="http://www.w3.org/2000/svg">
<g opacity="0.2">
<circle opacity="0.1" cx="7.5" cy="7.5" r="7.5" fill="black"/>
<circle opacity="0.1" cx="42.5" cy="7.5" r="7.5" fill="black"/>
<circle opacity="0.1" cx="77.5" cy="7.5" r="7.5" fill="black"/>
<circle opacity="0.1" cx="112.5" cy="7.5" r="7.5" fill="black"/>
<circle opacity="0.1" cx="7.5" cy="42.5" r="7.5" fill="black"/>
<circle opacity="0.1" cx="42.5" cy="42.5" r="7.5" fill="black"/>
<circle opacity="0.1" cx="77.5" cy="42.5" r="7.5" fill="black"/>
<circle opacity="0.1" cx="112.5" cy="42.5" r="7.5" fill="black"/>
<circle opacity="0.1" cx="7.5" cy="77.5" r="7.5" fill="black"/>
<circle opacity="0.1" cx="42.5" cy="77.5" r="7.5" fill="black"/>
<circle opacity="0.1" cx="77.5" cy="77.5" r="7.5" fill="black"/>
<circle opacity="0.1" cx="112.5" cy="77.5" r="7.5" fill="black"/>
<circle opacity="0.1" cx="7.5" cy="112.5" r="7.5" fill="black"/>
<circle opacity="0.1" cx="42.5" cy="112.5" r="7.5" fill="black"/>
<circle opacity="0.1" cx="77.5" cy="112.5" r="7.5" fill="black"/>
<circle opacity="0.1" cx="112.5" cy="112.5" r="7.5" fill="black"/>
<circle opacity="0.1" cx="147.5" cy="7.5" r="7.5" fill="black"/>
<circle opacity="0.1" cx="182.5" cy="7.5" r="7.5" fill="black"/>
<circle opacity="0.1" cx="217.5" cy="7.5" r="7.5" fill="black"/>
<circle opacity="0.1" cx="252.5" cy="7.5" r="7.5" fill="black"/>
<circle opacity="0.1" cx="147.5" cy="42.5" r="7.5" fill="black"/>
<circle opacity="0.1" cx="182.5" cy="42.5" r="7.5" fill="black"/>
<circle opacity="0.1" cx="217.5" cy="42.5" r="7.5" fill="black"/>
<circle opacity="0.1" cx="252.5" cy="42.5" r="7.5" fill="black"/>
<circle opacity="0.1" cx="147.5" cy="77.5" r="7.5" fill="black"/>
<circle opacity="0.1" cx="182.5" cy="77.5" r="7.5" fill="black"/>
<circle opacity="0.1" cx="217.5" cy="77.5" r="7.5" fill="black"/>
<circle opacity="0.1" cx="252.5" cy="77.5" r="7.5" fill="black"/>
<circle opacity="0.1" cx="147.5" cy="112.5" r="7.5" fill="black"/>
<circle opacity="0.1" cx="182.5" cy="112.5" r="7.5" fill="black"/>
<circle opacity="0.1" cx="217.5" cy="112.5" r="7.5" fill="black"/>
<circle opacity="0.1" cx="252.5" cy="112.5" r="7.5" fill="black"/>
<circle opacity="0.1" cx="7.5" cy="147.5" r="7.5" fill="black"/>
<circle opacity="0.1" cx="42.5" cy="147.5" r="7.5" fill="black"/>
<circle opacity="0.1" cx="77.5" cy="147.5" r="7.5" fill="black"/>
<circle opacity="0.1" cx="112.5" cy="147.5" r="7.5" fill="black"/>
<circle opacity="0.1" cx="7.5" cy="182.5" r="7.5" fill="black"/>
<circle opacity="0.1" cx="42.5" cy="182.5" r="7.5" fill="black"/>
<circle opacity="0.1" cx="77.5" cy="182.5" r="7.5" fill="black"/>
<circle opacity="0.1" cx="112.5" cy="182.5" r="7.5" fill="black"/>
<circle opacity="0.1" cx="7.5" cy="217.5" r="7.5" fill="black"/>
<circle opacity="0.1" cx="42.5" cy="217.5" r="7.5" fill="black"/>
<circle opacity="0.1" cx="77.5" cy="217.5" r="7.5" fill="black"/>
<circle opacity="0.1" cx="112.5" cy="217.5" r="7.5" fill="black"/>
<circle opacity="0.1" cx="7.5" cy="252.5" r="7.5" fill="black"/>
<circle opacity="0.1" cx="42.5" cy="252.5" r="7.5" fill="black"/>
<circle opacity="0.1" cx="77.5" cy="252.5" r="7.5" fill="black"/>
<circle opacity="0.1" cx="112.5" cy="252.5" r="7.5" fill="black"/>
<circle opacity="0.1" cx="147.5" cy="147.5" r="7.5" fill="black"/>
<circle opacity="0.1" cx="182.5" cy="147.5" r="7.5" fill="black"/>
<circle opacity="0.1" cx="217.5" cy="147.5" r="7.5" fill="black"/>
<circle opacity="0.1" cx="252.5" cy="147.5" r="7.5" fill="black"/>
<circle opacity="0.1" cx="147.5" cy="182.5" r="7.5" fill="black"/>
<circle opacity="0.1" cx="182.5" cy="182.5" r="7.5" fill="black"/>
<circle opacity="0.1" cx="217.5" cy="182.5" r="7.5" fill="black"/>
<circle opacity="0.1" cx="252.5" cy="182.5" r="7.5" fill="black"/>
<circle opacity="0.1" cx="147.5" cy="217.5" r="7.5" fill="black"/>
<circle opacity="0.1" cx="182.5" cy="217.5" r="7.5" fill="black"/>
<circle opacity="0.1" cx="217.5" cy="217.5" r="7.5" fill="black"/>
<circle opacity="0.1" cx="252.5" cy="217.5" r="7.5" fill="black"/>
<circle opacity="0.1" cx="147.5" cy="252.5" r="7.5" fill="black"/>
<circle opacity="0.1" cx="182.5" cy="252.5" r="7.5" fill="black"/>
<circle opacity="0.1" cx="217.5" cy="252.5" r="7.5" fill="black"/>
<circle opacity="0.1" cx="252.5" cy="252.5" r="7.5" fill="black"/>
</g>
</svg>
