<svg width="6" height="740" viewBox="0 0 6 740" fill="none" xmlns="http://www.w3.org/2000/svg">
<path d="M5.5 370L5.5 367.5L0.5 367.5L0.5 370L5.5 370ZM0.499984 737L0.499984 739.5L5.49998 739.5L5.49998 737L0.499984 737ZM0.5 370.051L0.5 372.551L5.5 372.551L5.5 370.051L0.5 370.051ZM5.5 387.425L5.5 384.925L0.499999 384.925L0.499999 387.425L5.5 387.425ZM0.499999 387.527L0.499999 390.027L5.5 390.027L5.5 387.527L0.499999 387.527ZM5.5 404.901L5.5 402.401L0.499999 402.401L0.499999 404.901L5.5 404.901ZM0.499999 405.003L0.499998 407.503L5.5 407.503L5.5 405.003L0.499999 405.003ZM5.5 422.377L5.5 419.877L0.499998 419.877L0.499998 422.377L5.5 422.377ZM0.499998 422.48L0.499998 424.98L5.5 424.98L5.5 422.48L0.499998 422.48ZM5.5 439.854L5.5 437.354L0.499997 437.354L0.499997 439.854L5.5 439.854ZM0.499997 439.956L0.499997 442.456L5.5 442.456L5.5 439.956L0.499997 439.956ZM5.5 457.33L5.5 454.83L0.499996 454.83L0.499996 457.33L5.5 457.33ZM0.499996 457.432L0.499996 459.932L5.5 459.932L5.5 457.432L0.499996 457.432ZM5.5 474.806L5.5 472.306L0.499996 472.306L0.499996 474.806L5.5 474.806ZM0.499996 474.908L0.499995 477.408L5.5 477.408L5.5 474.908L0.499996 474.908ZM5.49999 492.282L5.49999 489.782L0.499995 489.782L0.499995 492.282L5.49999 492.282ZM0.499995 492.384L0.499995 494.884L5.49999 494.884L5.49999 492.384L0.499995 492.384ZM5.49999 509.758L5.49999 507.258L0.499994 507.258L0.499994 509.758L5.49999 509.758ZM0.499994 509.861L0.499994 512.361L5.49999 512.361L5.49999 509.861L0.499994 509.861ZM5.49999 527.235L5.49999 524.735L0.499993 524.735L0.499993 527.235L5.49999 527.235ZM0.499993 527.337L0.499993 529.837L5.49999 529.837L5.49999 527.337L0.499993 527.337ZM5.49999 544.711L5.49999 542.211L0.499993 542.211L0.499993 544.711L5.49999 544.711ZM0.499993 544.813L0.499992 547.313L5.49999 547.313L5.49999 544.813L0.499993 544.813ZM5.49999 562.187L5.49999 559.687L0.499992 559.687L0.499992 562.187L5.49999 562.187ZM0.499992 562.289L0.499992 564.789L5.49999 564.789L5.49999 562.289L0.499992 562.289ZM5.49999 579.663L5.49999 577.163L0.499991 577.163L0.499991 579.663L5.49999 579.663ZM0.499991 579.765L0.499991 582.265L5.49999 582.265L5.49999 579.765L0.499991 579.765ZM5.49999 597.139L5.49999 594.639L0.49999 594.639L0.49999 597.139L5.49999 597.139ZM0.49999 597.242L0.49999 599.742L5.49999 599.742L5.49999 597.242L0.49999 597.242ZM5.49999 614.616L5.49999 612.116L0.49999 612.116L0.49999 614.616L5.49999 614.616ZM0.49999 614.718L0.499989 617.218L5.49999 617.218L5.49999 614.718L0.49999 614.718ZM5.49999 632.092L5.49999 629.592L0.499989 629.592L0.499989 632.092L5.49999 632.092ZM0.499989 632.194L0.499989 634.694L5.49999 634.694L5.49999 632.194L0.499989 632.194ZM5.49999 649.568L5.49999 647.068L0.499988 647.068L0.499988 649.568L5.49999 649.568ZM0.499988 649.67L0.499988 652.17L5.49999 652.17L5.49999 649.67L0.499988 649.67ZM5.49999 667.044L5.49999 664.544L0.499987 664.544L0.499987 667.044L5.49999 667.044ZM0.499987 667.146L0.499987 669.646L5.49999 669.646L5.49999 667.146L0.499987 667.146ZM5.49999 684.52L5.49999 682.02L0.499987 682.02L0.499987 684.52L5.49999 684.52ZM0.499987 684.623L0.499986 687.123L5.49999 687.123L5.49999 684.623L0.499987 684.623ZM5.49999 701.997L5.49999 699.497L0.499986 699.497L0.499986 701.997L5.49999 701.997ZM0.499986 702.099L0.499986 704.599L5.49999 704.599L5.49999 702.099L0.499986 702.099ZM5.49999 719.473L5.49999 716.973L0.499985 716.973L0.499985 719.473L5.49999 719.473ZM0.499985 719.575L0.499985 722.075L5.49998 722.075L5.49999 719.575L0.499985 719.575ZM5.49998 736.949L5.49998 734.449L0.499984 734.449L0.499984 736.949L5.49998 736.949ZM0.5 370L0.5 370.051L5.5 370.051L5.5 370L0.5 370ZM0.499999 387.425L0.499999 387.527L5.5 387.527L5.5 387.425L0.499999 387.425ZM0.499999 404.901L0.499999 405.003L5.5 405.003L5.5 404.901L0.499999 404.901ZM0.499998 422.377L0.499998 422.48L5.5 422.48L5.5 422.377L0.499998 422.377ZM0.499997 439.854L0.499997 439.956L5.5 439.956L5.5 439.854L0.499997 439.854ZM0.499996 457.33L0.499996 457.432L5.5 457.432L5.5 457.33L0.499996 457.33ZM0.499996 474.806L0.499996 474.908L5.5 474.908L5.5 474.806L0.499996 474.806ZM0.499995 492.282L0.499995 492.384L5.49999 492.384L5.49999 492.282L0.499995 492.282ZM0.499994 509.758L0.499994 509.861L5.49999 509.861L5.49999 509.758L0.499994 509.758ZM0.499993 527.235L0.499993 527.337L5.49999 527.337L5.49999 527.235L0.499993 527.235ZM0.499993 544.711L0.499993 544.813L5.49999 544.813L5.49999 544.711L0.499993 544.711ZM0.499992 562.187L0.499992 562.289L5.49999 562.289L5.49999 562.187L0.499992 562.187ZM0.499991 579.663L0.499991 579.765L5.49999 579.765L5.49999 579.663L0.499991 579.663ZM0.49999 597.139L0.49999 597.242L5.49999 597.242L5.49999 597.139L0.49999 597.139ZM0.49999 614.616L0.49999 614.718L5.49999 614.718L5.49999 614.616L0.49999 614.616ZM0.499989 632.092L0.499989 632.194L5.49999 632.194L5.49999 632.092L0.499989 632.092ZM0.499988 649.568L0.499988 649.67L5.49999 649.67L5.49999 649.568L0.499988 649.568ZM0.499987 667.044L0.499987 667.146L5.49999 667.146L5.49999 667.044L0.499987 667.044ZM0.499987 684.52L0.499987 684.623L5.49999 684.623L5.49999 684.52L0.499987 684.52ZM0.499986 701.997L0.499986 702.099L5.49999 702.099L5.49999 701.997L0.499986 701.997ZM0.499985 719.473L0.499985 719.575L5.49999 719.575L5.49999 719.473L0.499985 719.473ZM0.499984 736.949L0.499984 737L5.49998 737L5.49998 736.949L0.499984 736.949Z" fill="#DADADA"/>
<path d="M5.5 3L5.5 0.5L0.5 0.5L0.5 3L5.5 3ZM0.499984 370L0.499984 372.5L5.49998 372.5L5.49998 370L0.499984 370ZM0.5 3.0511L0.5 5.5511L5.5 5.5511L5.5 3.0511L0.5 3.0511ZM5.5 20.4251L5.5 17.9251L0.499999 17.9251L0.499999 20.4251L5.5 20.4251ZM0.499999 20.5273L0.499999 23.0273L5.5 23.0273L5.5 20.5273L0.499999 20.5273ZM5.5 37.9013L5.5 35.4013L0.499999 35.4013L0.499999 37.9013L5.5 37.9013ZM0.499999 38.0035L0.499998 40.5035L5.5 40.5035L5.5 38.0035L0.499999 38.0035ZM5.5 55.3775L5.5 52.8775L0.499998 52.8775L0.499998 55.3775L5.5 55.3775ZM0.499998 55.4797L0.499998 57.9797L5.5 57.9797L5.5 55.4797L0.499998 55.4797ZM5.5 72.8537L5.5 70.3537L0.499997 70.3537L0.499997 72.8537L5.5 72.8537ZM0.499997 72.9559L0.499997 75.4559L5.5 75.4559L5.5 72.9559L0.499997 72.9559ZM5.5 90.3299L5.5 87.8299L0.499996 87.8299L0.499996 90.3299L5.5 90.3299ZM0.499996 90.4321L0.499996 92.9321L5.5 92.9321L5.5 90.4321L0.499996 90.4321ZM5.5 107.806L5.5 105.306L0.499996 105.306L0.499996 107.806L5.5 107.806ZM0.499996 107.908L0.499995 110.408L5.5 110.408L5.5 107.908L0.499996 107.908ZM5.49999 125.282L5.49999 122.782L0.499995 122.782L0.499995 125.282L5.49999 125.282ZM0.499995 125.384L0.499995 127.884L5.49999 127.884L5.49999 125.384L0.499995 125.384ZM5.49999 142.758L5.49999 140.258L0.499994 140.258L0.499994 142.758L5.49999 142.758ZM0.499994 142.861L0.499994 145.361L5.49999 145.361L5.49999 142.861L0.499994 142.861ZM5.49999 160.235L5.49999 157.735L0.499993 157.735L0.499993 160.235L5.49999 160.235ZM0.499993 160.337L0.499993 162.837L5.49999 162.837L5.49999 160.337L0.499993 160.337ZM5.49999 177.711L5.49999 175.211L0.499993 175.211L0.499993 177.711L5.49999 177.711ZM0.499993 177.813L0.499992 180.313L5.49999 180.313L5.49999 177.813L0.499993 177.813ZM5.49999 195.187L5.49999 192.687L0.499992 192.687L0.499992 195.187L5.49999 195.187ZM0.499992 195.289L0.499992 197.789L5.49999 197.789L5.49999 195.289L0.499992 195.289ZM5.49999 212.663L5.49999 210.163L0.499991 210.163L0.499991 212.663L5.49999 212.663ZM0.499991 212.765L0.499991 215.265L5.49999 215.265L5.49999 212.765L0.499991 212.765ZM5.49999 230.139L5.49999 227.639L0.49999 227.639L0.49999 230.139L5.49999 230.139ZM0.49999 230.242L0.49999 232.742L5.49999 232.742L5.49999 230.242L0.49999 230.242ZM5.49999 247.616L5.49999 245.116L0.49999 245.116L0.49999 247.616L5.49999 247.616ZM0.49999 247.718L0.499989 250.218L5.49999 250.218L5.49999 247.718L0.49999 247.718ZM5.49999 265.092L5.49999 262.592L0.499989 262.592L0.499989 265.092L5.49999 265.092ZM0.499989 265.194L0.499989 267.694L5.49999 267.694L5.49999 265.194L0.499989 265.194ZM5.49999 282.568L5.49999 280.068L0.499988 280.068L0.499988 282.568L5.49999 282.568ZM0.499988 282.67L0.499988 285.17L5.49999 285.17L5.49999 282.67L0.499988 282.67ZM5.49999 300.044L5.49999 297.544L0.499987 297.544L0.499987 300.044L5.49999 300.044ZM0.499987 300.146L0.499987 302.646L5.49999 302.646L5.49999 300.146L0.499987 300.146ZM5.49999 317.52L5.49999 315.02L0.499987 315.02L0.499987 317.52L5.49999 317.52ZM0.499987 317.623L0.499986 320.123L5.49999 320.123L5.49999 317.623L0.499987 317.623ZM5.49999 334.997L5.49999 332.497L0.499986 332.497L0.499986 334.997L5.49999 334.997ZM0.499986 335.099L0.499986 337.599L5.49999 337.599L5.49999 335.099L0.499986 335.099ZM5.49999 352.473L5.49999 349.973L0.499985 349.973L0.499985 352.473L5.49999 352.473ZM0.499985 352.575L0.499985 355.075L5.49998 355.075L5.49999 352.575L0.499985 352.575ZM5.49998 369.949L5.49998 367.449L0.499984 367.449L0.499984 369.949L5.49998 369.949ZM0.5 3L0.5 3.0511L5.5 3.0511L5.5 3L0.5 3ZM0.499999 20.4251L0.499999 20.5273L5.5 20.5273L5.5 20.4251L0.499999 20.4251ZM0.499999 37.9013L0.499999 38.0035L5.5 38.0035L5.5 37.9013L0.499999 37.9013ZM0.499998 55.3775L0.499998 55.4797L5.5 55.4797L5.5 55.3775L0.499998 55.3775ZM0.499997 72.8537L0.499997 72.9559L5.5 72.9559L5.5 72.8537L0.499997 72.8537ZM0.499996 90.3299L0.499996 90.4321L5.5 90.4321L5.5 90.3299L0.499996 90.3299ZM0.499996 107.806L0.499996 107.908L5.5 107.908L5.5 107.806L0.499996 107.806ZM0.499995 125.282L0.499995 125.384L5.49999 125.384L5.49999 125.282L0.499995 125.282ZM0.499994 142.758L0.499994 142.861L5.49999 142.861L5.49999 142.758L0.499994 142.758ZM0.499993 160.235L0.499993 160.337L5.49999 160.337L5.49999 160.235L0.499993 160.235ZM0.499993 177.711L0.499993 177.813L5.49999 177.813L5.49999 177.711L0.499993 177.711ZM0.499992 195.187L0.499992 195.289L5.49999 195.289L5.49999 195.187L0.499992 195.187ZM0.499991 212.663L0.499991 212.765L5.49999 212.765L5.49999 212.663L0.499991 212.663ZM0.49999 230.139L0.49999 230.242L5.49999 230.242L5.49999 230.139L0.49999 230.139ZM0.49999 247.616L0.49999 247.718L5.49999 247.718L5.49999 247.616L0.49999 247.616ZM0.499989 265.092L0.499989 265.194L5.49999 265.194L5.49999 265.092L0.499989 265.092ZM0.499988 282.568L0.499988 282.67L5.49999 282.67L5.49999 282.568L0.499988 282.568ZM0.499987 300.044L0.499987 300.146L5.49999 300.146L5.49999 300.044L0.499987 300.044ZM0.499987 317.52L0.499987 317.623L5.49999 317.623L5.49999 317.52L0.499987 317.52ZM0.499986 334.997L0.499986 335.099L5.49999 335.099L5.49999 334.997L0.499986 334.997ZM0.499985 352.473L0.499985 352.575L5.49999 352.575L5.49999 352.473L0.499985 352.473ZM0.499984 369.949L0.499984 370L5.49998 370L5.49998 369.949L0.499984 369.949Z" fill="#DADADA"/>
</svg>
