<svg width="90" height="90" viewBox="0 0 90 90" fill="none" xmlns="http://www.w3.org/2000/svg">
<path d="M71.6863 0H18.3139C14.5557 0 10.9775 1.17896 7.96562 3.4091C7.37833 3.84398 7.25476 4.67262 7.68964 5.2599C8.12453 5.84719 8.95316 5.97041 9.54044 5.53588C12.0931 3.64553 15.1269 2.64621 18.3139 2.64621H71.6861C79.8241 2.64621 86.4447 9.26701 86.4447 17.4048V52.4106C86.4447 60.5486 79.8239 67.1692 71.6861 67.1692H49.1274C48.5823 67.1692 48.0557 67.397 47.683 67.7937L29.5656 87.0576C29.1745 87.4731 28.721 87.3552 28.5443 87.2854C28.3675 87.2155 27.9563 86.9908 27.9563 86.4199V69.1523C27.9563 68.059 27.0669 67.1695 25.9735 67.1695H18.3139C10.1759 67.1695 3.55509 60.5487 3.55509 52.4109V17.4048C3.55509 14.4109 4.44613 11.5286 6.13205 9.06979C6.54513 8.46703 6.39167 7.64367 5.7891 7.23041C5.18669 6.81715 4.36281 6.97096 3.94972 7.57336C1.96058 10.4748 0.909058 13.8744 0.909058 17.4048V52.4106C0.909058 62.0075 8.71691 69.8154 18.314 69.8154H20.3103C23.0717 69.8154 25.3103 72.054 25.3103 74.8154V86.4199C25.3103 87.8961 26.1969 89.2014 27.5693 89.7453C28.0019 89.9167 28.4512 90 28.8952 90C29.8601 90 30.8007 89.6068 31.4932 88.8706L47.9333 71.3901C48.8783 70.3853 50.1963 69.8156 51.5756 69.8156H71.6863C81.2833 69.8156 89.0911 62.0077 89.0911 52.4108V17.4048C89.0911 7.80785 81.2835 0 71.6863 0Z" fill="white"/>
<path d="M64.0055 21.258C59.4134 16.6658 51.9408 16.6661 47.3483 21.258L45.0422 23.5643C45.0361 23.5704 45.0171 23.5894 44.9818 23.5894C44.9466 23.5894 44.9278 23.5708 44.9216 23.5643L42.6521 21.295C38.0599 16.7027 30.5874 16.7029 25.9951 21.295C21.4028 25.8872 21.4028 33.3599 25.9951 37.9522L43.052 55.0091C43.568 55.525 44.2539 55.8091 44.9834 55.8091C45.7128 55.8091 46.3989 55.5248 46.9147 55.0089L56.2882 45.6338C56.805 45.117 56.805 44.2792 56.288 43.7628C55.7712 43.2462 54.9333 43.246 54.417 43.763L45.0435 53.1381C45.0373 53.1442 45.0183 53.1629 44.9834 53.1629C44.948 53.1629 44.9292 53.1442 44.9231 53.1377L27.8661 36.0808C24.3055 32.52 24.3055 26.7266 27.8661 23.1658C31.4268 19.605 37.2203 19.6054 40.7809 23.1658L43.0503 25.4351C43.5662 25.9511 44.2521 26.2353 44.9816 26.2353C45.7113 26.2353 46.397 25.9512 46.9131 25.4353L49.2193 23.1291C52.7807 19.5686 58.5737 19.5686 62.1343 23.1291C65.6949 26.6897 65.6949 32.4831 62.1343 36.0441L58.1842 39.9951C57.6674 40.5119 57.6674 41.3497 58.1843 41.8661C58.7011 42.3827 59.5389 42.3829 60.0554 41.8659L64.0057 37.9151C68.5978 33.3228 68.5978 25.8503 64.0055 21.258Z" fill="white"/>
</svg>
