<svg width="334" height="436" viewBox="0 0 334 436" fill="none" xmlns="http://www.w3.org/2000/svg">
<path d="M139.86 281.06H130.86V290.06H139.86V281.06ZM153.2 231.18L145.847 225.99L145.796 226.063L145.745 226.137L153.2 231.18ZM193.22 187.68L187.166 181.021L187.159 181.027L193.22 187.68ZM221.06 158.68L213.901 153.226L213.88 153.253L213.86 153.28L221.06 158.68ZM212.94 97.78L207.501 104.95L207.638 105.054L207.779 105.153L212.94 97.78ZM118.98 96.62L123.181 104.579L123.22 104.559L123.26 104.537L118.98 96.62ZM83.6 127.94L79.0452 135.702L86.1414 139.866L90.9236 133.171L83.6 127.94ZM13.42 86.76L5.89557 81.8221L0.703774 89.7334L8.86523 94.5223L13.42 86.76ZM78.96 29.34L75.0253 21.2457L75.0029 21.2565L74.9806 21.2675L78.96 29.34ZM284.28 37.46L279.069 44.7979L279.094 44.8156L279.119 44.8331L284.28 37.46ZM316.76 158.1L308.558 154.396L308.507 154.507L308.46 154.619L316.76 158.1ZM297.62 188.84L290.961 182.786L290.953 182.794L290.946 182.802L297.62 188.84ZM268.62 217.26L274.611 223.977L274.632 223.958L274.653 223.939L268.62 217.26ZM237.3 249.74L244.422 255.243L244.48 255.167L244.538 255.09L237.3 249.74ZM227.44 281.06V290.06H236.44V281.06H227.44ZM143.92 411.56L137.556 417.924L137.674 418.042L137.796 418.155L143.92 411.56ZM143.92 337.32L150.035 343.924L150.099 343.864L150.163 343.803L143.92 337.32ZM223.96 337.32L217.717 343.803L217.781 343.864L217.845 343.924L223.96 337.32ZM223.38 411.56L229.623 418.043L229.627 418.039L223.38 411.56ZM148.86 281.06C148.86 262.272 153.007 247.528 160.655 236.223L145.745 226.137C135.606 241.125 130.86 259.635 130.86 281.06H148.86ZM160.553 236.37C169.327 223.939 182.164 209.929 199.281 194.333L187.159 181.027C169.476 197.138 155.633 212.127 145.847 225.99L160.553 236.37ZM199.274 194.339C212.183 182.604 221.952 172.49 228.26 164.08L213.86 153.28C208.568 160.337 199.777 169.556 187.166 181.021L199.274 194.339ZM228.219 164.134C235.58 154.473 239.34 143.477 239.34 131.42H221.34C221.34 139.47 218.913 146.647 213.901 153.226L228.219 164.134ZM239.34 131.42C239.34 114.213 232.137 100.232 218.101 90.4069L207.779 105.153C216.943 111.568 221.34 120.014 221.34 131.42H239.34ZM218.379 90.6098C205.138 80.5646 187.937 76.02 167.7 76.02V94.02C185.356 94.02 198.315 97.982 207.501 104.95L218.379 90.6098ZM167.7 76.02C148.211 76.02 130.47 80.1784 114.7 88.7026L123.26 104.537C136.103 97.5949 150.842 94.02 167.7 94.02V76.02ZM114.779 88.6605C99.55 96.6982 86.7101 108.102 76.2764 122.709L90.9236 133.171C99.8233 120.712 110.57 111.235 123.181 104.579L114.779 88.6605ZM88.1548 120.178L17.9748 78.9977L8.86523 94.5223L79.0452 135.702L88.1548 120.178ZM20.9444 91.6979C36.2726 68.3406 56.8749 50.2612 82.9394 37.4124L74.9806 21.2675C46.1385 35.4855 23.0474 55.686 5.89557 81.8221L20.9444 91.6979ZM82.8947 37.4343C109.265 24.6155 140.73 18.04 177.56 18.04V0.0399933C138.603 0.0399933 104.335 6.99779 75.0253 21.2457L82.8947 37.4343ZM177.56 18.04C220.816 18.04 254.371 27.2591 279.069 44.7979L289.491 30.122C260.829 9.76758 223.237 0.0399933 177.56 0.0399933V18.04ZM279.119 44.8331C303.728 62.0593 315.88 85.573 315.88 116.34H333.88C333.88 79.8269 318.966 50.754 289.441 30.0869L279.119 44.8331ZM315.88 116.34C315.88 131.173 313.349 143.787 308.558 154.396L324.962 161.804C330.998 148.44 333.88 133.213 333.88 116.34H315.88ZM308.46 154.619C303.779 165.783 297.921 175.13 290.961 182.786L304.279 194.894C312.786 185.537 319.688 174.39 325.06 161.581L308.46 154.619ZM290.946 182.802C283.873 190.62 274.444 199.872 262.587 210.581L274.653 223.939C286.769 212.995 296.674 203.3 304.294 194.878L290.946 182.802ZM262.629 210.543C248.144 223.463 237.175 234.767 230.062 244.39L244.538 255.09C250.571 246.926 260.482 236.577 274.611 223.977L262.629 210.543ZM230.178 244.237C222.208 254.551 218.44 267.009 218.44 281.06H236.44C236.44 270.364 239.245 261.942 244.422 255.243L230.178 244.237ZM227.44 272.06H139.86V290.06H227.44V272.06ZM183.94 417.64C170.177 417.64 159.078 413.353 150.044 404.965L137.796 418.155C150.416 429.873 165.996 435.64 183.94 435.64V417.64ZM150.284 405.196C141.523 396.435 137.26 386.153 137.26 373.86H119.26C119.26 390.953 125.437 405.805 137.556 417.924L150.284 405.196ZM137.26 373.86C137.26 361.581 141.501 351.825 150.035 343.924L137.805 330.716C125.459 342.148 119.26 356.752 119.26 373.86H137.26ZM150.163 343.803C158.718 335.564 169.723 331.24 183.94 331.24V313.24C165.677 313.24 150.002 318.969 137.677 330.837L150.163 343.803ZM183.94 331.24C198.157 331.24 209.162 335.564 217.717 343.803L230.203 330.837C217.878 318.969 202.203 313.24 183.94 313.24V331.24ZM217.845 343.924C226.379 351.825 230.62 361.581 230.62 373.86H248.62C248.62 356.752 242.421 342.148 230.075 330.716L217.845 343.924ZM230.62 373.86C230.62 386.045 226.247 396.293 217.133 405.081L229.627 418.039C242.166 405.947 248.62 391.061 248.62 373.86H230.62ZM217.137 405.077C208.539 413.357 197.704 417.64 183.94 417.64V435.64C201.883 435.64 217.341 429.87 229.623 418.043L217.137 405.077Z" fill="#F8F8F8"/>
</svg>
