<svg width="90" height="90" fill="none" xmlns="http://www.w3.org/2000/svg"><path d="M71.686 0H18.314A17.267 17.267 0 0 0 7.966 3.41 1.323 1.323 0 0 0 9.54 5.535a14.638 14.638 0 0 1 8.774-2.89h53.372c8.138 0 14.759 6.621 14.759 14.759V52.41c0 8.138-6.621 14.758-14.759 14.758H49.127a1.99 1.99 0 0 0-1.444.625L29.566 87.058c-.392.415-.845.297-1.022.227-.177-.07-.588-.294-.588-.865V69.152c0-1.093-.89-1.983-1.982-1.983h-7.66c-8.138 0-14.759-6.62-14.759-14.758V17.405c0-2.994.891-5.876 2.577-8.335A1.323 1.323 0 0 0 3.95 7.573a17.313 17.313 0 0 0-3.04 9.832V52.41c0 9.596 7.807 17.404 17.404 17.404h1.996a5 5 0 0 1 5 5V86.42c0 1.476.887 2.781 2.26 3.325a3.56 3.56 0 0 0 3.924-.875l16.44-17.48a5 5 0 0 1 3.642-1.574h20.11c9.597 0 17.405-7.808 17.405-17.405V17.405C89.091 7.808 81.284 0 71.686 0z" fill="#fff"/><path d="M64.005 21.258c-4.592-4.592-12.064-4.592-16.657 0l-2.306 2.306c-.006.006-.025.025-.06.025a.08.08 0 0 1-.06-.025l-2.27-2.269c-4.592-4.592-12.065-4.592-16.657 0-4.592 4.592-4.592 12.065 0 16.657L43.052 55.01c.516.516 1.202.8 1.931.8.73 0 1.416-.284 1.932-.8l9.373-9.375a1.323 1.323 0 1 0-1.871-1.871l-9.373 9.375c-.007.006-.026.025-.06.025a.08.08 0 0 1-.06-.025L27.865 36.08c-3.56-3.561-3.56-9.354 0-12.915s9.354-3.56 12.915 0l2.27 2.27c.515.515 1.201.8 1.93.8.73 0 1.416-.285 1.932-.8l2.306-2.307c3.562-3.56 9.355-3.56 12.915 0 3.56 3.56 3.56 9.354 0 12.915l-3.95 3.951a1.323 1.323 0 1 0 1.871 1.87l3.95-3.95c4.593-4.592 4.593-12.065 0-16.657z" fill="#fff"/></svg>