<svg width="334" height="436" fill="none" xmlns="http://www.w3.org/2000/svg"><path d="M139.86 281.06h-9v9h9v-9zm13.34-49.88l-7.353-5.19-.051.073-.051.074 7.455 5.043zm40.02-43.5l-6.054-6.659-.007.006 6.061 6.653zm27.84-29l-7.159-5.454-.021.027-.02.027 7.2 5.4zm-8.12-60.9l-5.439 7.17.137.104.141.099 5.161-7.373zm-93.96-1.16l4.201 7.959.039-.02.04-.022-4.28-7.917zM83.6 127.94l-4.555 7.762 7.096 4.164 4.783-6.695-7.324-5.231zM13.42 86.76l-7.524-4.938-5.192 7.911 8.161 4.79 4.555-7.763zm65.54-57.42l-3.935-8.094-.022.01-.022.011 3.979 8.073zm205.32 8.12l-5.211 7.338.025.018.025.017 5.161-7.373zm32.48 120.64l-8.202-3.704-.051.111-.047.112 8.3 3.481zm-19.14 30.74l-6.659-6.054-.008.008-.007.008 6.674 6.038zm-29 28.42l5.991 6.717.021-.019.021-.019-6.033-6.679zm-31.32 32.48l7.122 5.503.058-.076.058-.077-7.238-5.35zm-9.86 31.32v9h9v-9h-9zm-83.52 130.5l-6.364 6.364.118.118.122.113 6.124-6.595zm0-74.24l6.115 6.604.064-.06.064-.061-6.243-6.483zm80.04 0l-6.243 6.483.064.061.064.06 6.115-6.604zm-.58 74.24l6.243 6.483.004-.004-6.247-6.479zm-74.52-130.5c0-18.788 4.147-33.532 11.795-44.837l-14.91-10.086c-10.139 14.988-14.885 33.498-14.885 54.923h18zm11.693-44.69c8.774-12.431 21.611-26.441 38.728-42.037l-12.122-13.306c-17.683 16.111-31.526 31.1-41.312 44.963l14.706 10.38zm38.721-42.031c12.909-11.735 22.678-21.849 28.986-30.259l-14.4-10.8c-5.292 7.057-14.083 16.276-26.694 27.741l12.108 13.318zm28.945-30.205c7.361-9.661 11.121-20.657 11.121-32.714h-18c0 8.05-2.427 15.227-7.439 21.806l14.318 10.908zm11.121-32.714c0-17.207-7.203-31.188-21.239-41.013l-10.322 14.746c9.164 6.415 13.561 14.861 13.561 26.267h18zm-20.961-40.81c-13.241-10.045-30.442-14.59-50.679-14.59v18c17.656 0 30.615 3.962 39.801 10.93l10.878-14.34zM167.7 76.02c-19.489 0-37.23 4.158-53 12.683l8.56 15.834c12.843-6.942 27.582-10.517 44.44-10.517v-18zm-52.921 12.64c-15.229 8.038-28.069 19.442-38.503 34.05l14.648 10.462c8.9-12.459 19.646-21.936 32.257-28.592l-8.402-15.918zm-26.624 31.518l-70.18-41.18-9.11 15.524 70.18 41.18 9.11-15.524zm-67.21-28.48C36.272 68.34 56.874 50.26 82.938 37.412L74.98 21.267C46.139 35.486 23.047 55.686 5.896 81.822l15.048 9.876zm61.95-54.264c26.37-12.818 57.835-19.394 94.665-19.394v-18c-38.957 0-73.225 6.958-102.535 21.206l7.87 16.188zM177.56 18.04c43.256 0 76.811 9.22 101.509 26.758l10.422-14.676C260.829 9.768 223.237.04 177.56.04v18zm101.559 26.793c24.609 17.226 36.761 40.74 36.761 71.507h18c0-36.513-14.914-65.586-44.439-86.253l-10.322 14.746zm36.761 71.507c0 14.833-2.531 27.447-7.322 38.056l16.404 7.408c6.036-13.364 8.918-28.591 8.918-45.464h-18zm-7.42 38.279c-4.681 11.164-10.539 20.511-17.499 28.167l13.318 12.108c8.507-9.357 15.409-20.504 20.781-33.313l-16.6-6.962zm-17.514 28.183c-7.073 7.818-16.502 17.07-28.359 27.779l12.066 13.358c12.116-10.944 22.021-20.639 29.641-29.061l-13.348-12.076zm-28.317 27.741c-14.485 12.92-25.454 24.224-32.567 33.847l14.476 10.7c6.033-8.164 15.944-18.513 30.073-31.113l-11.982-13.434zm-32.451 33.694c-7.97 10.314-11.738 22.772-11.738 36.823h18c0-10.696 2.805-19.118 7.982-25.817l-14.244-11.006zm-2.738 27.823h-87.58v18h87.58v-18zm-43.5 145.58c-13.763 0-24.862-4.287-33.896-12.675l-12.248 13.19c12.62 11.718 28.2 17.485 46.144 17.485v-18zm-33.656-12.444c-8.761-8.761-13.024-19.043-13.024-31.336h-18c0 17.093 6.177 31.945 18.296 44.064l12.728-12.728zM137.26 373.86c0-12.279 4.241-22.035 12.775-29.936l-12.23-13.208c-12.346 11.432-18.545 26.036-18.545 43.144h18zm12.903-30.057c8.555-8.239 19.56-12.563 33.777-12.563v-18c-18.263 0-33.938 5.729-46.263 17.597l12.486 12.966zm33.777-12.563c14.217 0 25.222 4.324 33.777 12.563l12.486-12.966c-12.325-11.868-28-17.597-46.263-17.597v18zm33.905 12.684c8.534 7.901 12.775 17.657 12.775 29.936h18c0-17.108-6.199-31.712-18.545-43.144l-12.23 13.208zm12.775 29.936c0 12.185-4.373 22.433-13.487 31.221l12.494 12.958c12.539-12.092 18.993-26.978 18.993-44.179h-18zm-13.483 31.217c-8.598 8.28-19.433 12.563-33.197 12.563v18c17.943 0 33.401-5.77 45.683-17.597l-12.486-12.966z" fill="#F8F8F8"/></svg>